<?xml version="1.0" encoding="UTF-8" standalone="no"?>
<!-- Created with Inkscape (http://www.inkscape.org/) -->

<svg
   version="1.1"
   id="svg12809"
   xml:space="preserve"
   width="1066.6667"
   height="1066.6667"
   viewBox="0 0 1066.6667 1066.6667"
   sodipodi:docname="lotus-flower-pdv.svg"
   inkscape:version="1.1.2 (b8e25be833, 2022-02-05)"
   xmlns:inkscape="http://www.inkscape.org/namespaces/inkscape"
   xmlns:sodipodi="http://sodipodi.sourceforge.net/DTD/sodipodi-0.dtd"
   xmlns="http://www.w3.org/2000/svg"
   xmlns:svg="http://www.w3.org/2000/svg"><defs
     id="defs12813"><clipPath
       clipPathUnits="userSpaceOnUse"
       id="clipPath12823"><path
         d="M 0,800 H 800 V 0 H 0 Z"
         id="path12821" /></clipPath></defs><sodipodi:namedview
     id="namedview12811"
     pagecolor="#ffffff"
     bordercolor="#666666"
     borderopacity="1.0"
     inkscape:pageshadow="2"
     inkscape:pageopacity="0.0"
     inkscape:pagecheckerboard="0"
     showgrid="false"
     inkscape:zoom="0.77906244"
     inkscape:cx="533.33337"
     inkscape:cy="533.33337"
     inkscape:window-width="1920"
     inkscape:window-height="1018"
     inkscape:window-x="-8"
     inkscape:window-y="-8"
     inkscape:window-maximized="1"
     inkscape:current-layer="g12815" /><g
     id="g12815"
     inkscape:groupmode="layer"
     inkscape:label="lotus-flower-pdv"
     transform="matrix(1.3333333,0,0,-1.3333333,0,1066.6667)"><g
       id="g12817"><g
         id="g12819"
         clip-path="url(#clipPath12823)"><path
           d="m 1.736,798.948 h 799.28 L 801.017,-0.333 H 1.736 Z"
           style="fill:#cfcfff;fill-opacity:1;fill-rule:evenodd;stroke:none"
           id="path12825" /><path
           d="m 493.733,153.594 c -0.112,-0.266 -0.223,-0.531 -0.334,-0.794 -11.259,-26.798 -24.277,-54.284 -39.375,-79.143 -10.931,-18.002 -28.629,-45.86 -52.403,-45.86 -23.772,0 -41.471,27.86 -52.403,45.86 -15.04,24.764 -28.015,52.134 -39.244,78.833 -26.82,-10.939 -55.348,-21.118 -83.493,-27.993 -20.459,-4.999 -52.673,-12.184 -69.483,4.626 -16.81,16.81 -9.625,49.025 -4.627,69.483 6.876,28.145 17.055,56.673 27.994,83.493 -26.7,11.23 -54.07,24.206 -78.832,39.244 -18.002,10.932 -45.862,28.632 -45.862,52.404 0,23.773 27.86,41.471 45.862,52.404 24.762,15.039 52.132,28.015 78.832,39.244 -10.939,26.82 -21.118,55.348 -27.994,83.493 -4.998,20.458 -12.183,52.673 4.627,69.483 16.81,16.81 49.024,9.624 69.483,4.626 28.145,-6.875 56.672,-17.054 83.493,-27.993 11.229,26.7 24.204,54.069 39.244,78.832 10.932,18.001 28.631,45.862 52.403,45.862 23.774,0 41.471,-27.861 52.404,-45.862 15.039,-24.763 28.014,-52.132 39.245,-78.832 26.82,10.939 55.347,21.118 83.492,27.993 20.46,4.998 52.674,12.184 69.484,-4.626 16.809,-16.81 9.623,-49.025 4.624,-69.484 -6.873,-28.144 -17.053,-56.672 -27.992,-83.492 26.699,-11.23 54.07,-24.205 78.834,-39.244 17.999,-10.933 45.86,-28.631 45.86,-52.404 0,-23.772 -27.858,-41.471 -45.86,-52.403 -24.86,-15.098 -52.344,-28.115 -79.142,-39.374 -0.265,-0.112 -0.533,-0.224 -0.799,-0.336 10.532,-26.048 20.27,-53.628 26.922,-80.85 4.998,-20.46 12.185,-52.674 -4.624,-69.482 -16.811,-16.81 -49.025,-9.626 -69.484,-4.627 -27.222,6.65 -54.805,16.388 -80.852,26.919"
           style="fill:#c7c7ed;fill-opacity:1;fill-rule:evenodd;stroke:none"
           id="path12827" /><path
           d="m 493.486,179.154 c -0.11,-0.265 -0.221,-0.529 -0.332,-0.795 -11.259,-26.797 -24.277,-54.282 -39.375,-79.142 -10.932,-18 -28.631,-45.861 -52.403,-45.861 -23.773,0 -41.471,27.861 -52.404,45.863 -15.039,24.762 -28.015,52.132 -39.243,78.831 -26.821,-10.938 -55.349,-21.116 -83.494,-27.993 -20.459,-4.997 -52.673,-12.183 -69.484,4.627 -16.809,16.81 -9.624,49.024 -4.625,69.483 6.876,28.146 17.054,56.673 27.993,83.493 -26.701,11.231 -54.07,24.204 -78.832,39.243 -18.002,10.934 -45.862,28.632 -45.862,52.404 0,23.774 27.86,41.472 45.862,52.405 24.762,15.038 52.131,28.014 78.832,39.243 -10.939,26.821 -21.118,55.349 -27.993,83.494 -4.999,20.458 -12.184,52.673 4.625,69.483 16.811,16.81 49.025,9.625 69.484,4.626 28.145,-6.876 56.673,-17.054 83.494,-27.994 11.228,26.7 24.204,54.07 39.243,78.833 10.933,18 28.631,45.861 52.404,45.861 23.772,0 41.471,-27.861 52.404,-45.861 15.039,-24.763 28.014,-52.133 39.242,-78.833 26.823,10.94 55.35,21.118 83.495,27.994 20.458,4.999 52.673,12.183 69.483,-4.626 16.809,-16.81 9.626,-49.025 4.627,-69.483 -6.877,-28.145 -17.055,-56.673 -27.994,-83.494 26.7,-11.229 54.069,-24.205 78.832,-39.243 18.002,-10.934 45.861,-28.631 45.861,-52.405 0,-23.773 -27.859,-41.47 -45.861,-52.403 -24.857,-15.097 -52.344,-28.114 -79.142,-39.374 -0.265,-0.112 -0.531,-0.223 -0.797,-0.334 10.531,-26.049 20.272,-53.63 26.923,-80.851 4.996,-20.459 12.182,-52.673 -4.627,-69.482 -16.809,-16.81 -49.023,-9.626 -69.482,-4.629 -27.224,6.651 -54.805,16.39 -80.854,26.92"
           style="fill:#ffb0b0;fill-opacity:1;fill-rule:evenodd;stroke:none"
           id="path12829" /><path
           d="m 401.376,719.913 c 25.261,0 100.301,-164.911 100.301,-220.305 0,-55.394 -44.906,-100.301 -100.301,-100.301 -55.395,0 -100.301,44.907 -100.301,100.301 0,55.394 75.04,220.305 100.301,220.305"
           style="fill:#ffd6d6;fill-opacity:1;fill-rule:evenodd;stroke:none"
           id="path12831" /><path
           d="m 401.376,719.913 c 10.663,0 30.195,-29.383 49.208,-67.511 15.18,-39.391 26.059,-77.361 26.059,-99.459 0,-60.83 -49.313,-110.141 -110.142,-110.141 -20.705,0 -40.075,5.719 -56.621,15.655 -5.655,12.557 -8.805,26.485 -8.805,41.151 0,55.395 75.039,220.305 100.301,220.305"
           style="fill:#ffe8e8;fill-opacity:1;fill-rule:evenodd;stroke:none"
           id="path12833" /><path
           d="m 401.376,719.913 c 5.222,0 12.571,-7.051 20.944,-18.721 13.878,-32.667 24.834,-66.998 24.834,-85.347 0,-41.636 -33.754,-75.388 -75.388,-75.388 -22.204,0 -42.165,9.601 -55.962,24.876 23.161,68.641 67.335,154.58 85.572,154.58"
           style="fill:#ffffff;fill-opacity:1;fill-rule:evenodd;stroke:none"
           id="path12835" /><path
           d="m 174.674,626.01 c 17.862,17.862 187.532,-45.686 226.702,-84.856 39.17,-39.17 39.17,-102.677 0,-141.847 -39.17,-39.168 -102.677,-39.168 -141.847,0 -39.169,39.17 -102.717,208.84 -84.855,226.703"
           style="fill:#ffd6d6;fill-opacity:1;fill-rule:evenodd;stroke:none"
           id="path12837" /><path
           d="m 174.674,626.01 c 7.539,7.539 42.129,0.574 82.533,-12.941 38.586,-17.122 73.128,-36.278 88.753,-51.904 43.013,-43.013 43.013,-112.75 0,-155.762 -14.641,-14.641 -32.38,-24.294 -51.106,-28.967 -12.879,4.878 -24.954,12.502 -35.325,22.871 -39.17,39.171 -102.717,208.84 -84.855,226.703"
           style="fill:#ffe8e8;fill-opacity:1;fill-rule:evenodd;stroke:none"
           id="path12839" /><path
           d="m 174.674,626.01 c 3.693,3.692 13.875,3.904 28.049,1.573 32.911,-13.286 64.933,-29.816 77.908,-42.791 29.44,-29.439 29.44,-77.174 0,-106.614 -15.701,-15.7 -36.604,-23.026 -57.16,-21.981 -32.16,64.914 -61.692,156.918 -48.797,169.813"
           style="fill:#ffffff;fill-opacity:1;fill-rule:evenodd;stroke:none"
           id="path12841" /><path
           d="m 80.771,399.307 c 0,25.261 164.909,100.301 220.304,100.301 55.395,0 100.301,-44.906 100.301,-100.301 0,-55.394 -44.906,-100.299 -100.301,-100.299 -55.394,0 -220.304,75.039 -220.304,100.299"
           style="fill:#ffd6d6;fill-opacity:1;fill-rule:evenodd;stroke:none"
           id="path12843" /><path
           d="m 80.771,399.307 c 0,10.663 29.383,30.196 67.51,49.21 39.392,15.177 77.362,26.057 99.46,26.057 60.828,0 110.141,-49.312 110.141,-110.141 0,-20.705 -5.72,-40.075 -15.656,-56.621 -12.557,-5.656 -26.485,-8.804 -41.151,-8.804 -55.394,0 -220.304,75.038 -220.304,100.299"
           style="fill:#ffe8e8;fill-opacity:1;fill-rule:evenodd;stroke:none"
           id="path12845" /><path
           d="m 80.771,399.307 c 0,5.222 7.05,12.572 18.721,20.946 32.667,13.877 66.998,24.832 85.346,24.832 41.636,0 75.389,-33.752 75.389,-75.388 0,-22.203 -9.602,-42.164 -24.876,-55.961 -68.642,23.161 -154.58,67.335 -154.58,85.571"
           style="fill:#ffffff;fill-opacity:1;fill-rule:evenodd;stroke:none"
           id="path12847" /><path
           d="m 174.674,172.606 c -17.862,17.862 45.686,187.533 84.855,226.701 39.17,39.17 102.677,39.17 141.847,0 39.17,-39.168 39.17,-102.677 0,-141.846 -39.17,-39.17 -208.84,-102.718 -226.702,-84.855"
           style="fill:#ffd6d6;fill-opacity:1;fill-rule:evenodd;stroke:none"
           id="path12849" /><path
           d="m 174.674,172.606 c -7.54,7.539 -0.574,42.127 12.94,82.533 17.122,38.586 36.279,73.128 51.905,88.754 43.011,43.012 112.75,43.012 155.761,0 14.642,-14.642 24.294,-32.382 28.968,-51.108 -4.88,-12.879 -12.501,-24.955 -22.872,-35.324 -39.17,-39.17 -208.839,-102.718 -226.702,-84.855"
           style="fill:#ffe8e8;fill-opacity:1;fill-rule:evenodd;stroke:none"
           id="path12851" /><path
           d="m 174.674,172.606 c -3.692,3.693 -3.905,13.875 -1.573,28.048 13.286,32.911 29.816,64.935 42.791,77.909 29.439,29.439 77.173,29.439 106.614,0 15.7,-15.7 23.026,-36.604 21.981,-57.161 -64.915,-32.159 -156.919,-61.691 -169.813,-48.796"
           style="fill:#ffffff;fill-opacity:1;fill-rule:evenodd;stroke:none"
           id="path12853" /><path
           d="m 401.376,78.702 c -25.261,0 -100.301,164.911 -100.301,220.306 0,55.393 44.906,100.299 100.301,100.299 55.395,0 100.301,-44.906 100.301,-100.299 0,-55.396 -75.04,-220.306 -100.301,-220.306"
           style="fill:#ffd6d6;fill-opacity:1;fill-rule:evenodd;stroke:none"
           id="path12855" /><path
           d="m 401.376,78.702 c -10.664,0 -30.195,29.384 -49.209,67.51 -15.179,39.392 -26.057,77.363 -26.057,99.461 0,60.83 49.311,110.14 110.14,110.14 20.706,0 40.075,-5.718 56.621,-15.655 5.656,-12.556 8.806,-26.485 8.806,-41.15 0,-55.396 -75.04,-220.306 -100.301,-220.306"
           style="fill:#ffe8e8;fill-opacity:1;fill-rule:evenodd;stroke:none"
           id="path12857" /><path
           d="m 401.376,78.702 c -5.223,0 -12.572,7.051 -20.945,18.722 -13.878,32.667 -24.833,66.998 -24.833,85.346 0,41.634 33.753,75.388 75.387,75.388 22.204,0 42.165,-9.601 55.962,-24.876 -23.161,-68.641 -67.335,-154.58 -85.571,-154.58"
           style="fill:#ffffff;fill-opacity:1;fill-rule:evenodd;stroke:none"
           id="path12859" /><path
           d="m 625.899,174.783 c -17.861,-17.862 -187.532,45.687 -226.701,84.856 -39.171,39.17 -39.171,102.677 0,141.846 39.169,39.171 102.676,39.171 141.846,0 39.169,-39.169 102.719,-208.839 84.855,-226.702"
           style="fill:#ffd6d6;fill-opacity:1;fill-rule:evenodd;stroke:none"
           id="path12861" /><path
           d="m 625.899,174.783 c -7.539,-7.538 -42.128,-0.573 -82.534,12.942 -38.586,17.122 -73.128,36.278 -88.752,51.903 -43.013,43.013 -43.013,112.751 0,155.763 14.64,14.641 32.38,24.294 51.107,28.967 12.878,-4.879 24.953,-12.502 35.324,-22.873 39.169,-39.169 102.719,-208.839 84.855,-226.702"
           style="fill:#ffe8e8;fill-opacity:1;fill-rule:evenodd;stroke:none"
           id="path12863" /><path
           d="m 625.899,174.783 c -3.693,-3.692 -13.875,-3.903 -28.048,-1.572 -32.911,13.287 -64.935,29.816 -77.908,42.79 -29.442,29.441 -29.442,77.174 0,106.615 15.701,15.7 36.604,23.026 57.16,21.981 32.16,-64.914 61.692,-156.918 48.796,-169.814"
           style="fill:#ffffff;fill-opacity:1;fill-rule:evenodd;stroke:none"
           id="path12865" /><path
           d="m 628.078,626.01 c 17.862,-17.863 -45.685,-187.533 -84.856,-226.703 -39.169,-39.168 -102.676,-39.168 -141.846,0 -39.17,39.17 -39.17,102.677 0,141.847 39.17,39.17 208.839,102.718 226.702,84.856"
           style="fill:#ffd6d6;fill-opacity:1;fill-rule:evenodd;stroke:none"
           id="path12867" /><path
           d="m 628.078,626.01 c 7.539,-7.54 0.573,-42.129 -12.94,-82.534 -17.123,-38.586 -36.28,-73.128 -51.904,-88.754 -43.013,-43.013 -112.752,-43.012 -155.763,0 -14.641,14.642 -24.293,32.382 -28.967,51.108 4.879,12.878 12.501,24.954 22.872,35.324 39.17,39.171 208.839,102.718 226.702,84.856"
           style="fill:#ffe8e8;fill-opacity:1;fill-rule:evenodd;stroke:none"
           id="path12869" /><path
           d="m 628.078,626.01 c 3.692,-3.693 3.904,-13.876 1.573,-28.049 -13.286,-32.912 -29.816,-64.934 -42.79,-77.908 -29.441,-29.441 -77.173,-29.441 -106.615,0 -15.701,15.7 -23.026,36.603 -21.98,57.16 64.914,32.16 156.917,61.691 169.812,48.797"
           style="fill:#ffffff;fill-opacity:1;fill-rule:evenodd;stroke:none"
           id="path12871" /><path
           d="m 721.981,399.307 c 0,-25.26 -164.91,-100.299 -220.304,-100.299 -55.395,0 -100.301,44.905 -100.301,100.299 0,55.395 44.906,100.301 100.301,100.301 55.394,0 220.304,-75.04 220.304,-100.301"
           style="fill:#ffd6d6;fill-opacity:1;fill-rule:evenodd;stroke:none"
           id="path12873" /><path
           d="m 721.981,399.307 c 0,-10.662 -29.383,-30.195 -67.511,-49.208 -39.392,-15.178 -77.361,-26.058 -99.459,-26.058 -60.829,0 -110.141,49.313 -110.141,110.142 0,20.705 5.719,40.074 15.655,56.621 12.557,5.655 26.487,8.804 41.152,8.804 55.394,0 220.304,-75.039 220.304,-100.301"
           style="fill:#ffe8e8;fill-opacity:1;fill-rule:evenodd;stroke:none"
           id="path12875" /><path
           d="m 721.981,399.307 c 0,-5.221 -7.05,-12.571 -18.719,-20.945 -32.668,-13.878 -67,-24.833 -85.349,-24.833 -41.635,0 -75.388,33.753 -75.388,75.389 0,22.204 9.601,42.164 24.875,55.96 68.642,-23.161 154.581,-67.335 154.581,-85.571"
           style="fill:#ffffff;fill-opacity:1;fill-rule:evenodd;stroke:none"
           id="path12877" /><path
           d="m 288.969,669.936 c 21.323,8.831 142.325,-104.135 161.692,-150.894 19.368,-46.759 -2.836,-100.366 -49.595,-119.735 -46.759,-19.368 -100.366,2.837 -119.734,49.596 -19.369,46.76 -13.686,212.2 7.637,221.033"
           style="fill:#ffa8a8;fill-opacity:1;fill-rule:evenodd;stroke:none"
           id="path12879" /><path
           d="m 288.969,669.935 c 9,3.728 35.761,-14.246 65.143,-39.781 26.584,-27.944 49.043,-56.191 56.771,-74.844 21.268,-51.347 -3.116,-110.214 -54.463,-131.482 -17.477,-7.24 -35.827,-9.184 -53.268,-6.582 -9.165,8.621 -16.693,19.278 -21.82,31.657 -19.369,46.76 -13.686,212.2 7.637,221.032"
           style="fill:#ffcccc;fill-opacity:1;fill-rule:evenodd;stroke:none"
           id="path12881" /><path
           d="m 288.969,669.935 c 4.407,1.826 13.077,-1.556 24.226,-8.479 23.135,-22.723 44.386,-47.872 50.802,-63.36 14.557,-35.145 -2.132,-75.437 -37.277,-89.996 -18.742,-7.763 -38.949,-6.638 -55.935,1.433 -4.45,66.038 2.79,154.026 18.184,160.402"
           style="fill:#ffe8e8;fill-opacity:1;fill-rule:evenodd;stroke:none"
           id="path12883" /><path
           d="m 130.439,511.405 c 8.832,21.323 174.273,27.005 221.031,7.637 46.759,-19.368 68.964,-72.975 49.596,-119.735 -19.369,-46.758 -72.975,-68.963 -119.734,-49.595 -46.759,19.368 -159.726,140.37 -150.893,161.693"
           style="fill:#ffb8b8;fill-opacity:1;fill-rule:evenodd;stroke:none"
           id="path12885" /><path
           d="m 130.439,511.405 c 3.728,9 35.36,15.214 74.192,17.934 38.558,-0.962 74.413,-5.054 93.066,-12.78 51.346,-21.269 75.73,-80.136 54.461,-131.482 -7.24,-17.478 -18.839,-31.828 -33.012,-42.32 -12.576,-0.385 -25.435,1.827 -37.814,6.955 -46.76,19.369 -159.726,140.37 -150.893,161.693"
           style="fill:#ffcccc;fill-opacity:1;fill-rule:evenodd;stroke:none"
           id="path12887" /><path
           d="m 130.439,511.405 c 1.826,4.408 10.347,8.147 23.126,11.135 32.427,0.293 65.237,-2.464 80.725,-8.88 35.144,-14.557 51.835,-54.849 37.277,-89.994 -7.763,-18.744 -22.847,-32.235 -40.565,-38.541 -49.842,43.551 -106.939,110.887 -100.563,126.28"
           style="fill:#ffe8e8;fill-opacity:1;fill-rule:evenodd;stroke:none"
           id="path12889" /><path
           d="m 130.439,287.21 c -8.833,21.323 104.134,142.325 150.893,161.693 46.759,19.368 100.365,-2.836 119.734,-49.596 19.368,-46.758 -2.837,-100.366 -49.596,-119.734 -46.758,-19.369 -212.199,-13.686 -221.031,7.637"
           style="fill:#ffb8b8;fill-opacity:1;fill-rule:evenodd;stroke:none"
           id="path12891" /><path
           d="m 130.439,287.21 c -3.728,9.001 14.245,35.762 39.78,65.143 27.945,26.585 56.193,49.044 74.845,56.771 51.347,21.268 110.213,-3.115 131.481,-54.462 7.24,-17.477 9.186,-35.828 6.582,-53.267 -8.62,-9.167 -19.277,-16.694 -31.657,-21.822 -46.759,-19.369 -212.198,-13.686 -221.031,7.637"
           style="fill:#ffcccc;fill-opacity:1;fill-rule:evenodd;stroke:none"
           id="path12893" /><path
           d="m 130.439,287.21 c -1.825,4.408 1.556,13.078 8.479,24.226 22.722,23.135 47.872,44.387 63.36,50.802 35.145,14.558 75.437,-2.131 89.995,-37.276 7.763,-18.743 6.639,-38.948 -1.431,-55.935 -66.039,-4.449 -154.027,2.79 -160.403,18.183"
           style="fill:#ffe8e8;fill-opacity:1;fill-rule:evenodd;stroke:none"
           id="path12895" /><path
           d="m 288.969,128.681 c -21.323,8.832 -27.006,174.272 -7.637,221.031 19.368,46.759 72.975,68.963 119.734,49.595 46.759,-19.368 68.963,-72.975 49.595,-119.734 C 431.294,232.813 310.292,119.849 288.969,128.681"
           style="fill:#ffb8b8;fill-opacity:1;fill-rule:evenodd;stroke:none"
           id="path12897" /><path
           d="m 288.969,128.681 c -9.001,3.728 -15.215,35.36 -17.934,74.191 0.962,38.559 5.055,74.414 12.78,93.067 21.268,51.346 80.135,75.729 131.482,54.461 17.477,-7.24 31.827,-18.839 42.32,-33.012 0.384,-12.577 -1.828,-25.435 -6.956,-37.815 C 431.294,232.813 310.292,119.849 288.969,128.681"
           style="fill:#ffcccc;fill-opacity:1;fill-rule:evenodd;stroke:none"
           id="path12899" /><path
           d="m 288.969,128.681 c -4.408,1.826 -8.147,10.347 -11.135,23.126 -0.292,32.426 2.465,65.237 8.88,80.724 14.557,35.145 54.849,51.836 89.995,37.278 18.743,-7.765 32.233,-22.847 38.54,-40.565 -43.551,-49.843 -110.886,-106.94 -126.28,-100.563"
           style="fill:#ffe8e8;fill-opacity:1;fill-rule:evenodd;stroke:none"
           id="path12901" /><path
           d="M 513.163,128.681 C 491.84,119.849 370.839,232.813 351.47,279.573 c -19.368,46.759 2.837,100.366 49.596,119.734 46.759,19.368 100.366,-2.836 119.735,-49.595 19.368,-46.759 13.685,-212.199 -7.638,-221.031"
           style="fill:#ffb8b8;fill-opacity:1;fill-rule:evenodd;stroke:none"
           id="path12903" /><path
           d="m 513.163,128.681 c -9.001,-3.729 -35.762,14.245 -65.142,39.779 -26.584,27.945 -49.045,56.193 -56.771,74.845 -21.269,51.347 3.115,110.214 54.462,131.482 17.477,7.24 35.827,9.185 53.268,6.582 9.166,-8.621 16.694,-19.278 21.821,-31.657 19.368,-46.759 13.685,-212.199 -7.638,-221.031"
           style="fill:#ffcccc;fill-opacity:1;fill-rule:evenodd;stroke:none"
           id="path12905" /><path
           d="m 513.163,128.681 c -4.406,-1.827 -13.076,1.555 -24.225,8.479 -23.135,22.723 -44.386,47.871 -50.802,63.36 -14.558,35.145 2.131,75.437 37.277,89.996 18.742,7.762 38.948,6.637 55.935,-1.434 4.449,-66.038 -2.791,-154.024 -18.185,-160.401"
           style="fill:#ffe8e8;fill-opacity:1;fill-rule:evenodd;stroke:none"
           id="path12907" /><path
           d="m 672.313,290.038 c -8.833,-21.323 -174.273,-27.005 -221.032,-7.636 -46.76,19.368 -68.964,72.975 -49.596,119.734 19.369,46.76 72.976,68.965 119.736,49.595 C 568.18,432.363 681.145,311.36 672.313,290.038"
           style="fill:#ffb8b8;fill-opacity:1;fill-rule:evenodd;stroke:none"
           id="path12909" /><path
           d="m 672.313,290.038 c -3.728,-9 -35.36,-15.214 -74.192,-17.934 -38.559,0.962 -74.413,5.055 -93.066,12.782 -51.346,21.266 -75.73,80.134 -54.461,131.48 7.239,17.479 18.839,31.829 33.012,42.321 12.577,0.385 25.435,-1.828 37.815,-6.956 46.759,-19.368 159.724,-140.369 150.892,-161.693"
           style="fill:#ffcccc;fill-opacity:1;fill-rule:evenodd;stroke:none"
           id="path12911" /><path
           d="m 672.313,290.038 c -1.826,-4.407 -10.348,-8.145 -23.126,-11.134 -32.428,-0.292 -65.238,2.464 -80.724,8.879 -35.146,14.558 -51.836,54.85 -37.279,89.995 7.763,18.743 22.847,32.235 40.565,38.54 49.843,-43.549 106.939,-110.885 100.564,-126.28"
           style="fill:#ffe8e8;fill-opacity:1;fill-rule:evenodd;stroke:none"
           id="path12913" /><path
           d="m 513.163,669.936 c 21.323,-8.834 27.006,-174.273 7.638,-221.033 -19.369,-46.759 -72.976,-68.964 -119.735,-49.596 -46.759,19.369 -68.964,72.976 -49.596,119.735 19.369,46.759 140.37,159.725 161.693,150.894"
           style="fill:#ffb8b8;fill-opacity:1;fill-rule:evenodd;stroke:none"
           id="path12915" /><path
           d="m 513.163,669.935 c 9.001,-3.728 15.215,-35.361 17.934,-74.192 -0.961,-38.558 -5.054,-74.413 -12.781,-93.067 -21.268,-51.346 -80.133,-75.729 -131.481,-54.461 -17.478,7.24 -31.827,18.84 -42.32,33.012 -0.385,12.577 1.827,25.436 6.955,37.815 19.369,46.759 140.37,159.725 161.693,150.893"
           style="fill:#ffcccc;fill-opacity:1;fill-rule:evenodd;stroke:none"
           id="path12917" /><path
           d="m 513.163,669.935 c 4.408,-1.826 8.149,-10.347 11.135,-23.127 0.292,-32.426 -2.465,-65.236 -8.879,-80.725 -14.558,-35.144 -54.85,-51.834 -89.994,-37.277 -18.744,7.764 -32.236,22.847 -38.541,40.565 43.551,49.843 110.886,106.94 126.279,100.564"
           style="fill:#ffe8e8;fill-opacity:1;fill-rule:evenodd;stroke:none"
           id="path12919" /><path
           d="M 671.693,511.405 C 680.526,490.082 567.56,369.08 520.801,349.712 c -46.76,-19.368 -100.365,2.837 -119.735,49.595 -19.368,46.76 2.837,100.367 49.595,119.735 46.761,19.368 212.2,13.686 221.032,-7.637"
           style="fill:#ffb8b8;fill-opacity:1;fill-rule:evenodd;stroke:none"
           id="path12921" /><path
           d="m 671.693,511.405 c 3.728,-9 -14.246,-35.762 -39.78,-65.142 -27.944,-26.586 -56.192,-49.045 -74.845,-56.772 -51.346,-21.268 -110.213,3.115 -131.481,54.462 -7.24,17.478 -9.186,35.827 -6.583,53.269 8.622,9.165 19.278,16.693 31.657,21.82 46.761,19.368 212.2,13.687 221.032,-7.637"
           style="fill:#ffcccc;fill-opacity:1;fill-rule:evenodd;stroke:none"
           id="path12923" /><path
           d="m 671.693,511.405 c 1.826,-4.408 -1.555,-13.077 -8.478,-24.226 -22.723,-23.136 -47.873,-44.387 -63.361,-50.803 -35.145,-14.557 -75.437,2.133 -89.995,37.278 -7.763,18.743 -6.638,38.948 1.433,55.935 66.037,4.449 154.025,-2.791 160.401,-18.184"
           style="fill:#ffe8e8;fill-opacity:1;fill-rule:evenodd;stroke:none"
           id="path12925" /><path
           d="m 403.859,640.806 c 18.422,0 73.149,-120.27 73.149,-160.669 0,-40.4 -32.75,-73.15 -73.149,-73.15 -40.4,0 -73.15,32.75 -73.15,73.15 0,40.399 54.727,160.669 73.15,160.669"
           style="fill:#ffa8a8;fill-opacity:1;fill-rule:evenodd;stroke:none"
           id="path12927" /><path
           d="m 403.859,640.806 c 7.777,0 22.022,-21.43 35.889,-49.237 11.069,-28.728 19.003,-56.42 19.003,-72.535 0,-44.364 -35.963,-80.327 -80.326,-80.327 -15.101,0 -29.227,4.171 -41.294,11.418 -4.126,9.157 -6.422,19.315 -6.422,30.012 0,40.399 54.727,160.669 73.15,160.669"
           style="fill:#ffbaba;fill-opacity:1;fill-rule:evenodd;stroke:none"
           id="path12929" /><path
           d="m 403.859,640.806 c 3.809,0 9.168,-5.143 15.275,-13.654 10.121,-23.824 18.111,-48.862 18.111,-62.243 0,-30.365 -24.616,-54.982 -54.981,-54.982 -16.193,0 -30.751,7.002 -40.812,18.143 16.891,50.06 49.108,112.736 62.407,112.736"
           style="fill:#ffd4d4;fill-opacity:1;fill-rule:evenodd;stroke:none"
           id="path12931" /><path
           d="m 238.523,572.322 c 13.028,13.026 136.769,-33.32 165.336,-61.886 28.566,-28.567 28.566,-74.883 0,-103.449 -28.567,-28.567 -74.882,-28.567 -103.449,0 -28.567,28.566 -74.913,152.307 -61.887,165.335"
           style="fill:#ffa8a8;fill-opacity:1;fill-rule:evenodd;stroke:none"
           id="path12933" /><path
           d="m 238.523,572.322 c 5.5,5.498 30.725,0.418 60.192,-9.438 28.142,-12.488 53.334,-26.458 64.73,-37.854 31.368,-31.369 31.368,-82.229 0,-113.598 -10.678,-10.678 -23.616,-17.717 -37.274,-21.125 -9.392,3.557 -18.198,9.117 -25.761,16.68 -28.567,28.566 -74.913,152.307 -61.887,165.335"
           style="fill:#ffbaba;fill-opacity:1;fill-rule:evenodd;stroke:none"
           id="path12935" /><path
           d="m 238.523,572.322 c 2.694,2.692 10.12,2.847 20.457,1.147 24.002,-9.69 47.356,-21.745 56.819,-31.207 21.471,-21.472 21.472,-56.284 0,-77.755 -11.45,-11.451 -26.695,-16.793 -41.687,-16.03 -23.454,47.342 -44.992,114.44 -35.589,123.845"
           style="fill:#ffd4d4;fill-opacity:1;fill-rule:evenodd;stroke:none"
           id="path12937" /><path
           d="m 170.04,406.987 c 0,18.423 120.27,73.15 160.669,73.15 40.399,0 73.15,-32.751 73.15,-73.15 0,-40.4 -32.751,-73.15 -73.15,-73.15 -40.399,0 -160.669,54.726 -160.669,73.15"
           style="fill:#ffa8a8;fill-opacity:1;fill-rule:evenodd;stroke:none"
           id="path12939" /><path
           d="m 170.04,406.987 c 0,7.776 21.43,22.021 49.236,35.888 28.728,11.069 56.42,19.003 72.537,19.003 44.362,0 80.325,-35.963 80.325,-80.326 0,-15.1 -4.17,-29.226 -11.417,-41.293 -9.158,-4.126 -19.316,-6.422 -30.012,-6.422 -40.399,0 -160.669,54.726 -160.669,73.15"
           style="fill:#ffbaba;fill-opacity:1;fill-rule:evenodd;stroke:none"
           id="path12941" /><path
           d="m 170.04,406.987 c 0,3.808 5.142,9.169 13.653,15.276 23.825,10.12 48.862,18.11 62.245,18.11 30.364,0 54.98,-24.616 54.98,-54.981 0,-16.194 -7.002,-30.75 -18.142,-40.813 -50.061,16.892 -112.736,49.108 -112.736,62.408"
           style="fill:#ffd4d4;fill-opacity:1;fill-rule:evenodd;stroke:none"
           id="path12943" /><path
           d="m 238.523,241.652 c -13.026,13.027 33.32,136.767 61.887,165.335 28.567,28.566 74.882,28.566 103.449,0 28.566,-28.568 28.566,-74.883 0,-103.449 C 375.292,274.97 251.551,228.624 238.523,241.652"
           style="fill:#ffa8a8;fill-opacity:1;fill-rule:evenodd;stroke:none"
           id="path12945" /><path
           d="m 238.523,241.652 c -5.498,5.499 -0.418,30.724 9.439,60.193 12.487,28.139 26.458,53.331 37.853,64.727 31.37,31.369 82.229,31.369 113.599,0 10.677,-10.678 17.717,-23.616 21.126,-37.272 -3.559,-9.393 -9.118,-18.2 -16.681,-25.762 C 375.292,274.97 251.551,228.624 238.523,241.652"
           style="fill:#ffbaba;fill-opacity:1;fill-rule:evenodd;stroke:none"
           id="path12947" /><path
           d="m 238.523,241.652 c -2.692,2.692 -2.846,10.119 -1.146,20.454 9.69,24.004 21.745,47.359 31.206,56.82 21.472,21.471 56.284,21.472 77.756,0 11.45,-11.45 16.792,-26.696 16.03,-41.687 -47.342,-23.454 -114.441,-44.992 -123.846,-35.587"
           style="fill:#ffd4d4;fill-opacity:1;fill-rule:evenodd;stroke:none"
           id="path12949" /><path
           d="m 403.859,173.168 c -18.423,0 -73.15,120.269 -73.15,160.669 0,40.399 32.75,73.15 73.15,73.15 40.399,0 73.149,-32.751 73.149,-73.15 0,-40.4 -54.727,-160.669 -73.149,-160.669"
           style="fill:#ffa8a8;fill-opacity:1;fill-rule:evenodd;stroke:none"
           id="path12951" /><path
           d="m 403.859,173.168 c -7.776,0 -22.022,21.43 -35.889,49.235 -11.069,28.728 -19.003,56.422 -19.003,72.536 0,44.364 35.963,80.327 80.325,80.327 15.102,0 29.228,-4.171 41.295,-11.417 4.126,-9.158 6.421,-19.317 6.421,-30.012 0,-40.4 -54.727,-160.669 -73.149,-160.669"
           style="fill:#ffbaba;fill-opacity:1;fill-rule:evenodd;stroke:none"
           id="path12953" /><path
           d="m 403.859,173.168 c -3.808,0 -9.169,5.142 -15.276,13.653 -10.121,23.825 -18.11,48.863 -18.11,62.243 0,30.366 24.615,54.981 54.981,54.981 16.193,0 30.751,-7.001 40.813,-18.141 -16.892,-50.059 -49.109,-112.736 -62.408,-112.736"
           style="fill:#ffd4d4;fill-opacity:1;fill-rule:evenodd;stroke:none"
           id="path12955" /><path
           d="m 569.193,241.652 c -13.026,-13.028 -136.767,33.318 -165.334,61.886 -28.566,28.566 -28.566,74.881 0,103.449 28.567,28.566 74.882,28.566 103.45,0 28.566,-28.568 74.912,-152.308 61.884,-165.335"
           style="fill:#ffa8a8;fill-opacity:1;fill-rule:evenodd;stroke:none"
           id="path12957" /><path
           d="m 569.193,241.652 c -5.498,-5.5 -30.723,-0.419 -60.191,9.437 -28.142,12.488 -53.333,26.458 -64.729,37.855 -31.369,31.368 -31.369,82.228 0,113.598 10.677,10.677 23.617,17.716 37.273,21.125 9.392,-3.558 18.198,-9.117 25.763,-16.68 28.566,-28.568 74.912,-152.308 61.884,-165.335"
           style="fill:#ffbaba;fill-opacity:1;fill-rule:evenodd;stroke:none"
           id="path12959" /><path
           d="m 569.193,241.652 c -2.692,-2.693 -10.119,-2.847 -20.456,-1.148 -24.002,9.69 -47.355,21.745 -56.819,31.207 -21.47,21.473 -21.471,56.284 0,77.756 11.451,11.45 26.695,16.792 41.687,16.029 23.456,-47.342 44.993,-114.439 35.588,-123.844"
           style="fill:#ffd4d4;fill-opacity:1;fill-rule:evenodd;stroke:none"
           id="path12961" /><path
           d="m 569.193,572.322 c 13.028,-13.028 -33.318,-136.769 -61.884,-165.335 -28.568,-28.567 -74.883,-28.567 -103.45,0 -28.567,28.566 -28.567,74.882 0,103.449 28.567,28.566 152.308,74.912 165.334,61.886"
           style="fill:#ffa8a8;fill-opacity:1;fill-rule:evenodd;stroke:none"
           id="path12963" /><path
           d="m 569.193,572.322 c 5.499,-5.499 0.419,-30.725 -9.438,-60.192 -12.485,-28.142 -26.457,-53.334 -37.854,-64.73 -31.369,-31.369 -82.228,-31.369 -113.597,0 -10.678,10.679 -17.717,23.617 -21.126,37.274 3.559,9.392 9.117,18.199 16.681,25.762 28.567,28.566 152.308,74.912 165.334,61.886"
           style="fill:#ffbaba;fill-opacity:1;fill-rule:evenodd;stroke:none"
           id="path12965" /><path
           d="m 569.193,572.322 c 2.694,-2.694 2.848,-10.12 1.147,-20.457 -9.69,-24.002 -21.744,-47.356 -31.206,-56.819 -21.472,-21.47 -56.284,-21.471 -77.755,0 -11.451,11.452 -16.792,26.696 -16.031,41.687 47.341,23.455 114.442,44.993 123.845,35.589"
           style="fill:#ffd4d4;fill-opacity:1;fill-rule:evenodd;stroke:none"
           id="path12967" /><path
           d="m 637.678,406.986 c 0,-18.423 -120.271,-73.149 -160.67,-73.149 -40.399,0 -73.149,32.75 -73.149,73.15 0,40.399 32.75,73.15 73.149,73.15 40.399,0 160.67,-54.727 160.67,-73.151"
           style="fill:#ffa8a8;fill-opacity:1;fill-rule:evenodd;stroke:none"
           id="path12969" /><path
           d="m 637.678,406.986 c 0,-7.776 -21.43,-22.021 -49.236,-35.887 -28.729,-11.07 -56.421,-19.005 -72.536,-19.005 -44.363,0 -80.326,35.965 -80.326,80.326 0,15.101 4.169,29.227 11.418,41.294 9.157,4.126 19.315,6.423 30.01,6.423 40.401,0 160.67,-54.727 160.67,-73.151"
           style="fill:#ffbaba;fill-opacity:1;fill-rule:evenodd;stroke:none"
           id="path12971" /><path
           d="m 637.678,406.986 c 0,-3.808 -5.143,-9.169 -13.654,-15.275 -23.824,-10.121 -48.862,-18.11 -62.243,-18.11 -30.366,0 -54.982,24.615 -54.982,54.981 0,16.193 7.003,30.75 18.142,40.812 50.061,-16.892 112.737,-49.107 112.737,-62.408"
           style="fill:#ffd4d4;fill-opacity:1;fill-rule:evenodd;stroke:none"
           id="path12973" /><path
           d="m 352.544,445.796 c 5.991,-11.395 12.624,-22.059 21.228,-30.313 -2.1,5.593 -4.663,11.339 -7.556,16.425 -4.526,7.955 -9.426,14.058 -13.447,13.912 -0.065,-0.002 -0.14,-0.01 -0.225,-0.024 m 39.289,-14.469 c 0.246,1.076 0.513,2.153 0.798,3.231 1.072,7.5 -0.021,14.633 -9.375,28.536 1.207,-3.101 2.186,-6.487 3.279,-10.275 0.761,-2.631 1.59,-5.5 2.665,-8.7 1.271,-3.79 2.089,-8.196 2.633,-12.792 m -37.467,67.793 c -1.784,3.699 -0.233,8.144 3.465,9.928 3.698,1.785 8.144,0.234 9.928,-3.465 0.943,-1.95 -0.481,-1.299 0.065,-1.549 1.363,-0.622 3.12,-1.424 6.095,-4.922 14.409,-16.934 23.106,-28.876 28.127,-38.209 3.083,7.632 5.577,13.902 5.369,15.923 -0.419,4.084 2.554,7.734 6.638,8.152 4.083,0.418 7.733,-2.555 8.152,-6.638 0.595,-5.765 -2.743,-14.024 -6.75,-23.936 -2.741,-6.781 -5.861,-14.498 -8.001,-21.932 -0.397,-2.364 -0.927,-4.793 -1.495,-7.397 -0.299,-1.366 -0.609,-2.79 -0.911,-4.296 -0.145,-1.467 -0.211,-2.889 -0.181,-4.254 2.535,2.17 5.104,4.365 7.715,6.527 1.85,2.914 3.545,6.026 5.072,9.247 6.471,13.645 9.77,28.869 9.172,39.391 -0.124,2.189 -0.425,4.101 -0.909,5.655 -1.222,3.923 0.968,8.095 4.891,9.317 3.923,1.221 8.094,-0.969 9.316,-4.891 0.842,-2.707 1.355,-5.834 1.55,-9.265 0.521,-9.158 -1.298,-21.044 -5.148,-32.878 8.735,4.479 18.101,7.255 28.358,6.86 4.099,-0.144 7.306,-3.586 7.161,-7.685 -0.144,-4.101 -3.585,-7.307 -7.686,-7.163 -14.414,0.554 -27.973,-8.391 -40.653,-18.699 -1.779,-2.615 -3.684,-5.102 -5.708,-7.414 10.332,-1.997 21.734,-1.787 31.564,1.087 l -0.002,0.008 c 9.235,2.706 16.967,7.751 20.646,15.488 0.826,1.741 1.469,3.672 1.892,5.801 0.804,4.035 4.728,6.656 8.763,5.852 4.035,-0.803 6.657,-4.727 5.852,-8.763 -0.652,-3.281 -1.69,-6.36 -3.057,-9.236 -5.708,-12.008 -16.85,-19.582 -29.904,-23.409 h -0.029 c -12.326,-3.611 -26.448,-3.876 -39.038,-1.365 -3.653,0.729 -7.206,1.698 -10.581,2.894 l -0.565,-0.318 c 2.873,-0.899 5.591,-1.863 8.274,-2.817 14.28,-5.074 27.444,-9.752 56.333,3.019 3.763,1.656 8.156,-0.052 9.811,-3.814 1.656,-3.764 -0.051,-8.156 -3.814,-9.811 -34.105,-15.077 -49.946,-9.586 -67.017,-3.521 3.91,-5.032 7.99,-8.589 12.775,-10.915 9.145,-4.448 21.768,-5.105 41.338,-3.591 4.1,0.305 7.672,-2.771 7.979,-6.871 0.303,-4.099 -2.772,-7.672 -6.872,-7.977 -22.207,-1.719 -37.015,-0.739 -48.909,5.045 -3.391,1.651 -6.475,3.643 -9.351,6.023 l 0.13,-0.282 c 4.723,-10.108 11.87,-18.944 21.509,-21.785 1.852,-0.546 3.798,-0.878 5.833,-0.963 4.1,-0.16 7.294,-3.615 7.132,-7.714 -0.159,-4.101 -3.615,-7.294 -7.713,-7.134 -3.334,0.138 -6.482,0.671 -9.445,1.545 -13.856,4.085 -23.746,15.413 -30.107,28.388 -0.721,-3.432 -1.509,-6.741 -2.375,-9.783 -3.896,-13.682 -10.017,-22.879 -19.983,-20.041 -3.956,1.125 -6.25,5.246 -5.124,9.201 1.125,3.955 5.244,6.249 9.2,5.124 0.84,-0.239 0.032,4.346 1.583,9.793 0.756,2.66 1.453,5.567 2.096,8.602 -9.462,-5.138 -19.517,-7.682 -25.123,-9.098 l -1.864,-0.472 c -3.971,-1.045 -8.039,1.327 -9.084,5.299 -1.044,3.971 1.328,8.04 5.299,9.085 1.014,0.269 1.499,0.393 2.039,0.528 3.717,0.94 10.04,2.54 16.394,5.378 -2.024,-0.368 -4.241,-0.672 -6.68,-0.903 -3.95,-0.371 -7.105,-0.521 -9.866,-0.651 -7.828,-0.37 -11.641,-0.551 -17.76,-6.903 -2.846,-2.958 -7.553,-3.049 -10.511,-0.203 -2.958,2.845 -3.049,7.551 -0.203,10.509 5.106,5.301 9.096,8.023 13.282,9.488 -6.424,1.366 -12.322,3.926 -17.164,8.019 -3.135,2.653 -3.526,7.346 -0.873,10.482 2.653,3.134 7.346,3.525 10.482,0.872 6.556,-5.542 17.347,-6.557 28.331,-5.178 1.486,0.186 2.967,0.414 4.435,0.678 -5.522,1.229 -8.299,2.503 -12.915,4.619 -3.935,1.804 -9.425,4.321 -20.884,8.372 -3.875,1.366 -5.908,5.616 -4.542,9.491 1.365,3.875 5.616,5.908 9.491,4.542 3.504,-1.238 6.496,-2.351 9.084,-3.356 -3.304,2.582 -6.97,5.374 -10.227,7.698 -3.191,2.278 -2.904,4.466 -4.061,4.268 -4.051,-0.691 -7.899,2.033 -8.589,6.085 -0.691,4.052 2.033,7.897 6.084,8.589 3.386,0.579 9.119,-2.502 15.186,-6.832 3.155,-2.251 6.628,-4.875 9.838,-7.364 -5.652,9.229 -10.501,19.224 -15.334,29.188 -1.898,3.913 -3.795,7.824 -4.971,10.174 -1.832,3.666 -0.346,8.124 3.321,9.957 3.664,1.833 8.123,0.347 9.957,-3.319 2.215,-4.433 3.65,-7.389 5.085,-10.349 l 1.479,-3.045 c 0.759,0.558 1.635,0.981 2.605,1.223 1.178,0.297 2.407,0.465 3.682,0.51 7.361,0.267 13.998,-4.123 19.717,-10.922 -2.658,9.16 -4.68,14.983 -15.537,20.508 l 0.007,0.013 c -1.895,0.964 -2.308,1.399 -3.299,2.441 -0.168,0.177 0.282,-0.301 -0.237,0.218 -2.91,2.91 -2.91,7.629 0,10.539 2.911,2.91 7.63,2.91 10.54,0 l 0.128,-0.132 c 3.387,-1.746 6.186,-3.485 8.526,-5.263 -2.791,3.487 -5.934,7.282 -9.468,11.434 -0.802,0.944 -0.898,0.988 -0.971,1.021 -2.494,1.139 -4.015,1.834 -7.285,8.595"
           style="fill:#d95353;fill-opacity:1;fill-rule:evenodd;stroke:none"
           id="path12975" /><path
           d="m 361.688,394.506 c 6.217,-0.817 12.324,-1.173 18.025,-0.068 -2.815,0.735 -5.821,1.33 -8.658,1.608 -4.438,0.433 -8.242,0.197 -9.314,-1.444 -0.017,-0.026 -0.036,-0.059 -0.053,-0.096 m 16.794,11.57 c -0.359,0.4 -0.713,0.808 -1.061,1.225 -2.684,2.532 -5.829,4.102 -13.989,4.285 1.572,-0.39 3.195,-0.952 5.01,-1.581 1.261,-0.437 2.635,-0.913 4.21,-1.383 1.866,-0.559 3.848,-1.472 5.83,-2.546 m -37.502,4.135 c -1.973,0.329 -3.306,2.195 -2.977,4.167 0.329,1.974 2.195,3.306 4.167,2.978 1.041,-0.172 0.383,-0.557 0.635,-0.41 0.631,0.368 1.444,0.842 3.671,1.043 10.787,0.977 17.982,1.082 23.107,0.459 -2.172,3.371 -3.966,6.124 -4.829,6.609 -1.743,0.982 -2.36,3.189 -1.379,4.931 0.98,1.743 3.188,2.361 4.931,1.38 2.461,-1.382 4.811,-5.031 7.629,-9.41 1.928,-2.996 4.122,-6.405 6.48,-9.345 0.829,-0.822 1.647,-1.715 2.523,-2.673 0.46,-0.502 0.94,-1.026 1.454,-1.569 0.543,-0.47 1.09,-0.895 1.642,-1.267 -0.152,1.618 -0.304,3.257 -0.43,4.904 -0.64,1.555 -1.402,3.103 -2.255,4.616 -3.613,6.407 -8.744,11.997 -13.099,14.715 -0.905,0.566 -1.75,0.983 -2.505,1.227 -1.904,0.615 -2.949,2.659 -2.333,4.563 0.616,1.905 2.659,2.949 4.564,2.333 1.313,-0.424 2.701,-1.099 4.121,-1.986 3.791,-2.365 8.01,-6.428 11.637,-11.284 0.671,4.734 2.198,9.241 5.236,13.211 1.209,1.591 3.48,1.901 5.071,0.691 1.59,-1.209 1.899,-3.479 0.691,-5.07 -4.271,-5.58 -4.519,-13.488 -3.98,-21.43 0.54,-1.443 0.995,-2.899 1.347,-4.354 3.697,3.55 6.817,8.147 8.433,12.865 l -0.003,10e-4 c 1.517,4.436 1.683,8.93 -0.363,12.567 -0.46,0.818 -1.049,1.616 -1.776,2.383 -1.38,1.454 -1.321,3.751 0.132,5.131 1.455,1.38 3.75,1.321 5.132,-0.133 1.121,-1.182 2.056,-2.459 2.817,-3.811 3.174,-5.644 3.058,-12.207 0.913,-18.476 l -0.008,-0.012 c -2.025,-5.919 -5.888,-11.612 -10.424,-15.917 -1.315,-1.249 -2.699,-2.391 -4.122,-3.398 l -0.033,-0.314 c 1.165,0.891 2.312,1.701 3.445,2.501 6.03,4.257 11.59,8.181 14.624,23.265 0.397,1.962 2.312,3.23 4.275,2.833 1.962,-0.398 3.23,-2.312 2.832,-4.275 -3.582,-17.805 -10.217,-22.568 -17.426,-27.657 3.1,0.143 5.662,0.767 7.932,2.018 4.338,2.389 8.147,7.228 13.041,15.44 1.031,1.718 3.258,2.275 4.975,1.245 1.717,-1.031 2.275,-3.258 1.245,-4.976 -5.554,-9.319 -10.103,-14.936 -15.748,-18.043 -1.608,-0.887 -3.267,-1.554 -5.021,-2.03 l 0.147,-0.027 c 5.35,-0.96 10.873,-0.599 14.711,2.438 0.737,0.584 1.417,1.265 2.022,2.051 1.215,1.586 3.488,1.887 5.074,0.671 1.587,-1.216 1.887,-3.486 0.671,-5.074 -0.991,-1.287 -2.087,-2.39 -3.268,-3.324 -5.518,-4.367 -12.805,-5.119 -19.753,-4.005 1.162,-1.251 2.257,-2.494 3.226,-3.694 4.348,-5.392 6.289,-10.413 2.36,-13.582 -1.558,-1.257 -3.843,-1.012 -5.1,0.546 -1.259,1.56 -1.014,3.843 0.545,5.1 0.332,0.268 -1.72,1.235 -3.453,3.382 -0.844,1.048 -1.806,2.142 -2.833,3.251 -0.614,-5.208 -2.426,-9.925 -3.438,-12.554 l -0.334,-0.874 c -0.702,-1.874 -2.787,-2.826 -4.662,-2.126 -1.873,0.7 -2.826,2.787 -2.126,4.661 0.178,0.48 0.264,0.706 0.363,0.959 0.669,1.744 1.808,4.71 2.464,8.034 -0.421,-0.908 -0.924,-1.876 -1.518,-2.911 -0.961,-1.676 -1.787,-2.973 -2.512,-4.108 -2.051,-3.219 -3.05,-4.787 -2.242,-9.007 0.378,-1.964 -0.908,-3.862 -2.872,-4.239 -1.963,-0.378 -3.861,0.907 -4.238,2.871 -0.675,3.52 -0.638,5.873 -0.045,7.95 -2.347,-2.172 -5.024,-3.801 -8.012,-4.577 -1.936,-0.502 -3.914,0.661 -4.416,2.596 -0.503,1.937 0.661,3.915 2.597,4.417 4.047,1.052 7.482,5.061 10.02,9.819 0.342,0.643 0.668,1.298 0.975,1.956 -2.04,-1.853 -3.327,-2.601 -5.466,-3.842 -1.823,-1.059 -4.367,-2.536 -9.198,-5.959 -1.632,-1.158 -3.894,-0.773 -5.053,0.859 -1.158,1.632 -0.773,3.894 0.86,5.053 1.476,1.046 2.76,1.924 3.886,2.672 -1.956,-0.59 -4.096,-1.265 -5.935,-1.907 -1.804,-0.631 -2.594,0.098 -2.84,-0.418 -0.863,-1.806 -3.028,-2.571 -4.834,-1.708 -1.806,0.863 -2.572,3.028 -1.708,4.834 0.72,1.511 3.556,2.926 6.984,4.123 1.782,0.624 3.802,1.268 5.694,1.847 -5.26,0.343 -10.6,1.221 -15.922,2.098 -2.09,0.343 -4.18,0.687 -5.445,0.879 -1.974,0.301 -3.331,2.145 -3.03,4.119 0.3,1.974 2.144,3.329 4.118,3.03 2.386,-0.365 3.966,-0.623 5.546,-0.884 l 1.628,-0.267 c -0.009,0.458 0.069,0.926 0.245,1.38 0.213,0.553 0.492,1.089 0.832,1.609 1.961,3.004 5.572,4.413 9.885,4.778 -4.392,1.515 -7.278,2.346 -12.526,-0.422 l -0.003,0.006 c -0.916,-0.483 -1.205,-0.525 -1.898,-0.627 -0.118,-0.017 0.199,0.028 -0.153,-0.032 -1.976,-0.341 -3.854,0.984 -4.195,2.96 -0.34,1.976 0.986,3.854 2.961,4.195 l 0.089,0.013 c 1.646,0.857 3.125,1.482 4.49,1.915 -2.172,-0.132 -4.565,-0.317 -7.21,-0.556 -0.601,-0.055 -0.645,-0.08 -0.679,-0.1 -1.154,-0.673 -1.858,-1.082 -5.467,-0.484"
           style="fill:#ffffff;fill-opacity:1;fill-rule:evenodd;stroke:none"
           id="path12977" /></g></g></g></svg>
